# ProBuilder 5.0.3
# https://unity3d.com/unity/features/worldbuilding/probuilder
# 12/5/2021 1:10:00 PM

mtllib ./Arch.mtl
o Arch

g Arch
v -32.34905 0 -3.900003
v -31.95078 4.951731 -3.900003
v -32.34905 0 3.899996
v -31.95078 4.951731 3.899996
v -28.98771 4.482427 -3.900003
v -29.34905 0 -3.900003
v -28.98771 4.482427 3.899996
v -29.34905 0 3.899996
v -30.76577 9.781533 -3.900003
v -30.76577 9.781533 3.899996
v -27.91261 8.854482 -3.900003
v -27.91261 8.854482 3.899996
v -28.82322 14.37048 -3.900003
v -28.82322 14.37048 3.899996
v -26.1502 13.00851 -3.900003
v -26.1502 13.00851 3.899996
v -26.17093 18.60558 -3.900003
v -26.17093 18.60558 3.899996
v -23.74388 16.84222 -3.900003
v -23.74388 16.84222 3.899996
v -22.87423 22.38255 -3.900003
v -22.87423 22.38255 3.899996
v -20.75291 20.26123 -3.900003
v -20.75291 20.26123 3.899996
v -19.01429 25.60838 -3.900003
v -19.01429 25.60838 3.899996
v -17.25094 23.18133 -3.900003
v -17.25094 23.18133 3.899996
v -14.68616 28.20366 -3.900003
v -14.68616 28.20366 3.899996
v -13.32419 25.53064 -3.900003
v -13.32419 25.53064 3.899996
v -9.996405 30.10446 -3.900003
v -9.996405 30.10446 3.899996
v -9.069355 27.25129 -3.900003
v -9.069355 27.25129 3.899996
v -5.060507 31.26399 -3.900003
v -5.060507 31.26399 3.899996
v -4.591204 28.30093 -3.900003
v -4.591204 28.30093 3.899996
v 1.907349E-06 31.6537 -3.900003
v 1.907349E-06 31.6537 3.899996
v 1.907349E-06 28.6537 -3.900003
v 1.907349E-06 28.6537 3.899996
v 5.060505 31.26399 -3.900003
v 5.060505 31.26399 3.899996
v 4.591202 28.30093 -3.900003
v 4.591202 28.30093 3.899996
v 9.996404 30.10446 -3.900003
v 9.996404 30.10446 3.899996
v 9.069353 27.25129 -3.900003
v 9.069353 27.25129 3.899996
v 14.68616 28.20366 -3.900003
v 14.68616 28.20366 3.899996
v 13.32419 25.53064 -3.900003
v 13.32419 25.53064 3.899996
v 19.01429 25.60838 -3.900003
v 19.01429 25.60838 3.899996
v 17.25094 23.18133 -3.900003
v 17.25094 23.18133 3.899996
v 22.87423 22.38255 -3.900003
v 22.87423 22.38255 3.899996
v 20.75291 20.26123 -3.900003
v 20.75291 20.26123 3.899996
v 26.17093 18.60558 -3.900003
v 26.17093 18.60558 3.899996
v 23.74388 16.84222 -3.900003
v 23.74388 16.84222 3.899996
v 28.82321 14.37048 -3.900003
v 28.82321 14.37048 3.899996
v 26.15019 13.00851 -3.900003
v 26.15019 13.00851 3.899996
v 30.76577 9.781533 -3.900003
v 30.76577 9.781533 3.899996
v 27.9126 8.854482 -3.900003
v 27.9126 8.854482 3.899996
v 31.95078 4.95173 -3.900003
v 31.95078 4.95173 3.899996
v 28.98771 4.482427 -3.900003
v 28.98771 4.482427 3.899996
v 32.34905 -2.861023E-06 -3.900003
v 32.34905 -2.861023E-06 3.899996
v 29.34905 -2.861023E-06 -3.900003
v 29.34905 -2.861023E-06 3.899996
v 31.95078 -4.951727 -3.900003
v 31.95078 -4.951727 3.899996
v 28.98771 -4.482424 -3.900003
v 28.98771 -4.482424 3.899996
v 30.76577 -9.781531 -3.900003
v 30.76577 -9.781531 3.899996
v 27.91261 -8.854481 -3.900003
v 27.91261 -8.854481 3.899996
v 28.82321 -14.37048 -3.900003
v 28.82321 -14.37048 3.899996
v 26.15019 -13.00851 -3.900003
v 26.15019 -13.00851 3.899996
v 26.17093 -18.60558 -3.900003
v 26.17093 -18.60558 3.899996
v 23.74388 -16.84222 -3.900003
v 23.74388 -16.84222 3.899996
v 22.87423 -22.38255 -3.900003
v 22.87423 -22.38255 3.899996
v 20.75291 -20.26123 -3.900003
v 20.75291 -20.26123 3.899996
v 19.0143 -25.60838 -3.900003
v 19.0143 -25.60838 3.899996
v 17.25094 -23.18133 -3.900003
v 17.25094 -23.18133 3.899996
v 14.68617 -28.20366 -3.900003
v 14.68617 -28.20366 3.899996
v 13.32419 -25.53064 -3.900003
v 13.32419 -25.53064 3.899996
v 9.996408 -30.10446 -3.900003
v 9.996408 -30.10446 3.899996
v 9.069358 -27.25129 -3.900003
v 9.069358 -27.25129 3.899996
v 5.060508 -31.26399 -3.900003
v 5.060508 -31.26399 3.899996
v 4.591204 -28.30093 -3.900003
v 4.591204 -28.30093 3.899996
v 0 -31.65371 -3.900003
v 0 -31.65371 3.899996
v 0 -28.65371 -3.900003
v 0 -28.65371 3.899996
v -5.060509 -31.26399 -3.900003
v -5.060509 -31.26399 3.899996
v -4.591206 -28.30093 -3.900003
v -4.591206 -28.30093 3.899996
v -9.99641 -30.10446 -3.900003
v -9.99641 -30.10446 3.899996
v -9.069359 -27.25129 -3.900003
v -9.069359 -27.25129 3.899996
v -14.68615 -28.20366 -3.900003
v -14.68615 -28.20366 3.899996
v -13.32418 -25.53064 -3.900003
v -13.32418 -25.53064 3.899996
v -19.01429 -25.60839 -3.900003
v -19.01429 -25.60839 3.899996
v -17.25093 -23.18134 -3.900003
v -17.25093 -23.18134 3.899996
v -22.87423 -22.38255 -3.900003
v -22.87423 -22.38255 3.899996
v -20.75291 -20.26123 -3.900003
v -20.75291 -20.26123 3.899996
v -26.17093 -18.60558 -3.900003
v -26.17093 -18.60558 3.899996
v -23.74388 -16.84223 -3.900003
v -23.74388 -16.84223 3.899996
v -28.82322 -14.37048 -3.900003
v -28.82322 -14.37048 3.899996
v -26.1502 -13.00851 -3.900003
v -26.1502 -13.00851 3.899996
v -30.76577 -9.78153 -3.900003
v -30.76577 -9.78153 3.899996
v -27.91261 -8.85448 -3.900003
v -27.91261 -8.85448 3.899996
v -31.95078 -4.951727 -3.900003
v -31.95078 -4.951727 3.899996
v -28.98771 -4.482424 -3.900003
v -28.98771 -4.482424 3.899996

vt -3.900003 -2.593471
vt -3.900003 2.37425
vt 3.899996 -2.593471
vt 3.899996 2.37425
vt 3.900003 2.138742
vt 3.900003 -2.358225
vt -3.899996 2.138742
vt -3.899996 -2.358225
vt -3.900003 -2.804307
vt -3.900003 2.168744
vt 3.899996 -2.804307
vt 3.899996 2.168744
vt 3.900003 1.933062
vt 3.900003 -2.56924
vt -3.899996 1.933062
vt -3.899996 -2.56924
vt -3.900003 -2.985525
vt -3.900003 1.997644
vt 3.899996 -2.985525
vt 3.899996 1.997644
vt 3.900003 1.761875
vt 3.900003 -2.750555
vt -3.899996 1.761875
vt -3.899996 -2.750555
vt -3.900003 -3.119214
vt -3.900003 1.877852
vt 3.899996 -3.119214
vt 3.899996 1.877852
vt 3.900003 1.642161
vt 3.900003 -2.884178
vt -3.899996 1.642161
vt -3.899996 -2.884178
vt -3.900003 -3.192487
vt -3.900003 1.820866
vt 3.899996 -3.192487
vt 3.899996 1.820866
vt 3.900003 1.585408
vt 3.900003 -2.957218
vt -3.899996 1.585408
vt -3.899996 -2.957218
vt 3.198676 -3.900003
vt -1.831748 -3.900003
vt 3.198676 3.899996
vt -1.831748 3.899996
vt 1.596525 -3.900003
vt -2.963167 -3.900003
vt 1.596525 3.899996
vt -2.963167 3.899996
vt 3.137887 -3.900003
vt -1.908713 -3.900003
vt 3.137887 3.899996
vt -1.908713 3.899996
vt 1.673656 -3.900003
vt -2.902216 -3.900003
vt 1.673656 3.899996
vt -2.902216 3.899996
vt 3.016572 -3.900003
vt -2.043752 -3.900003
vt 3.016572 3.899996
vt -2.043752 3.899996
vt 1.808776 -3.900003
vt -2.780808 -3.900003
vt 1.808776 3.899996
vt -2.780808 3.899996
vt 2.84683 -3.900003
vt -2.223436 -3.900003
vt 2.84683 3.899996
vt -2.223436 3.899996
vt 1.98838 -3.900003
vt -2.611139 -3.900003
vt 1.98838 3.899996
vt -2.611139 3.899996
vt 2.645037 -3.900003
vt -2.430455 -3.900003
vt 2.645037 3.899996
vt -2.430455 3.899996
vt 2.195179 -3.900003
vt -2.409559 -3.900003
vt 2.195179 3.899996
vt -2.409559 3.899996
vt 2.430454 -3.900003
vt -2.645033 -3.900003
vt 2.430454 3.899996
vt -2.645033 3.899996
vt 2.409555 -3.900003
vt -2.195178 -3.900003
vt 2.409555 3.899996
vt -2.195178 3.899996
vt 2.223437 -3.900003
vt -2.84683 -3.900003
vt 2.223437 3.899996
vt -2.84683 3.899996
vt 2.611137 -3.900003
vt -1.988382 -3.900003
vt 2.611137 3.899996
vt -1.988382 3.899996
vt 2.043738 -3.900003
vt -3.016582 -3.900003
vt 2.043738 3.899996
vt -3.016582 3.899996
vt 2.780821 -3.900003
vt -1.80876 -3.900003
vt 2.780821 3.899996
vt -1.80876 3.899996
vt 1.908732 -3.900003
vt -3.137872 -3.900003
vt 1.908732 3.899996
vt -3.137872 3.899996
vt 2.902186 -3.900003
vt -1.673687 -3.900003
vt 2.902186 3.899996
vt -1.673687 3.899996
vt 1.831749 -3.900003
vt -3.198674 -3.900003
vt 1.831749 3.899996
vt -3.198674 3.899996
vt 2.963189 -3.900003
vt -1.596508 -3.900003
vt 2.963189 3.899996
vt -1.596508 3.899996
vt 3.900003 1.820875
vt 3.900003 -3.192481
vt -3.899996 1.820875
vt -3.899996 -3.192481
vt -3.900003 -2.957226
vt -3.900003 1.585406
vt 3.899996 -2.957226
vt 3.899996 1.585406
vt 3.900003 1.877844
vt 3.900003 -3.119213
vt -3.899996 1.877844
vt -3.899996 -3.119213
vt -3.900003 -2.88416
vt -3.900003 1.64217
vt 3.899996 -2.88416
vt 3.899996 1.64217
vt 3.900003 1.997648
vt 3.900003 -2.985524
vt -3.899996 1.997648
vt -3.899996 -2.985524
vt -3.900003 -2.750557
vt -3.900003 1.761877
vt 3.899996 -2.750557
vt 3.899996 1.761877
vt 3.900003 2.168734
vt 3.900003 -2.804318
vt -3.899996 2.168734
vt -3.899996 -2.804318
vt -3.900003 -2.569251
vt -3.900003 1.933051
vt 3.899996 -2.569251
vt 3.899996 1.933051
vt 3.900003 2.37425
vt 3.900003 -2.593473
vt -3.899996 2.37425
vt -3.899996 -2.593473
vt -3.900003 -2.358227
vt -3.900003 2.138743
vt 3.899996 -2.358227
vt 3.899996 2.138743
vt 3.900003 2.593472
vt 3.900003 -2.374243
vt -3.899996 2.593472
vt -3.899996 -2.374243
vt -3.900003 -2.138737
vt -3.900003 2.358225
vt 3.899996 -2.138737
vt 3.899996 2.358225
vt 3.900003 2.804307
vt 3.900003 -2.168745
vt -3.899996 2.804307
vt -3.899996 -2.168745
vt -3.900003 -1.933062
vt -3.900003 2.569241
vt 3.899996 -1.933062
vt 3.899996 2.569241
vt 3.900003 2.985527
vt 3.900003 -1.997646
vt -3.899996 2.985527
vt -3.899996 -1.997646
vt -3.900003 -1.761875
vt -3.900003 2.750559
vt 3.899996 -1.761875
vt 3.899996 2.750559
vt 3.900003 3.119221
vt 3.900003 -1.877839
vt -3.899996 3.119221
vt -3.899996 -1.877839
vt -3.900003 -1.642163
vt -3.900003 2.884168
vt 3.899996 -1.642163
vt 3.899996 2.884168
vt 3.900003 3.192475
vt 3.900003 -1.82088
vt -3.899996 3.192475
vt -3.899996 -1.82088
vt -3.900003 -1.585414
vt -3.900003 2.957217
vt 3.899996 -1.585414
vt 3.899996 2.957217
vt 1.596497 -3.900003
vt 1.596497 3.899996
vt -3.900003 -1.820872
vt -3.900003 3.192486
vt 3.899996 -1.820872
vt 3.899996 3.192486
vt 3.900003 2.957227
vt 3.900003 -1.585404
vt -3.899996 2.957227
vt -3.899996 -1.585404
vt -3.900003 -1.877838
vt -3.900003 3.11923
vt 3.899996 -1.877838
vt 3.899996 3.11923
vt 3.900003 2.884176
vt 3.900003 -1.642163
vt -3.899996 2.884176
vt -3.899996 -1.642163
vt -3.900003 -1.997655
vt -3.900003 2.985517
vt 3.899996 -1.997655
vt 3.899996 2.985517
vt 3.900003 2.750548
vt 3.900003 -1.761885
vt -3.899996 2.750548
vt -3.899996 -1.761885
vt -3.900003 -2.168743
vt -3.900003 2.804308
vt 3.899996 -2.168743
vt 3.899996 2.804308
vt 3.900003 2.569242
vt 3.900003 -1.933061
vt -3.899996 2.569242
vt -3.899996 -1.933061
vt -3.900003 -2.374247
vt -3.900003 2.593476
vt 3.899996 -2.374247
vt 3.899996 2.593476
vt 3.900003 2.358229
vt 3.900003 -2.13874
vt -3.899996 2.358229
vt -3.899996 -2.13874
vt -32.34905 0
vt -31.95078 4.951731
vt -29.34905 0
vt -28.98771 4.482427
vt 31.95078 4.951731
vt 32.34905 0
vt 28.98771 4.482427
vt 29.34905 0
vt -30.76577 9.781533
vt -27.91261 8.854482
vt 30.76577 9.781533
vt 27.91261 8.854482
vt -28.82322 14.37048
vt -26.1502 13.00851
vt 28.82322 14.37048
vt 26.1502 13.00851
vt -26.17093 18.60558
vt -23.74388 16.84222
vt 26.17093 18.60558
vt 23.74388 16.84222
vt -22.87423 22.38255
vt -20.75291 20.26123
vt 22.87423 22.38255
vt 20.75291 20.26123
vt -19.01429 25.60838
vt -17.25094 23.18133
vt 19.01429 25.60838
vt 17.25094 23.18133
vt -14.68616 28.20366
vt -13.32419 25.53064
vt 14.68616 28.20366
vt 13.32419 25.53064
vt -9.996405 30.10446
vt -9.069355 27.25129
vt 9.996405 30.10446
vt 9.069355 27.25129
vt -5.060507 31.26399
vt -4.591204 28.30093
vt 5.060507 31.26399
vt 4.591204 28.30093
vt 1.907349E-06 31.6537
vt 1.907349E-06 28.6537
vt 31.95078 -4.951727
vt 28.98771 -4.482424
vt -31.95078 -4.951727
vt -28.98771 -4.482424
vt 30.76577 -9.781531
vt 27.91261 -8.854481
vt -30.76577 -9.781531
vt -27.91261 -8.854481
vt 28.82321 -14.37048
vt 26.15019 -13.00851
vt -28.82321 -14.37048
vt -26.15019 -13.00851
vt 26.17093 -18.60558
vt 23.74388 -16.84222
vt -26.17093 -18.60558
vt -23.74388 -16.84222
vt 22.87423 -22.38255
vt 20.75291 -20.26123
vt -22.87423 -22.38255
vt -20.75291 -20.26123
vt 19.0143 -25.60838
vt 17.25094 -23.18133
vt -19.0143 -25.60838
vt -17.25094 -23.18133
vt 14.68617 -28.20366
vt 13.32419 -25.53064
vt -14.68617 -28.20366
vt -13.32419 -25.53064
vt 9.996408 -30.10446
vt 9.069358 -27.25129
vt -9.996408 -30.10446
vt -9.069358 -27.25129
vt 5.060508 -31.26399
vt 4.591204 -28.30093
vt -5.060508 -31.26399
vt -4.591204 -28.30093
vt 0 -31.65371
vt 0 -28.65371

vn -1 1.494928E-08 0
vn -0.9871589 0.1597415 0
vn 0.9871029 -0.1600872 0
vn 1 -1.868687E-08 0
vn -0.9490717 0.3150603 0
vn 0.9488623 -0.3156905 0
vn -0.8870072 0.4617556 0
vn 0.8865866 -0.4625627 0
vn -0.8029568 0.5960373 0
vn 0.8023228 -0.5968903 0
vn -0.6994787 0.7146534 0
vn 0.6986855 -0.7154289 0
vn -0.5795256 0.814954 0
vn 0.578671 -0.8155611 0
vn -0.4462863 0.8948902 0
vn 0.4454928 -0.8952855 0
vn -0.3030628 0.9529706 0
vn 0.3024522 -0.9531646 0
vn -0.1531906 0.9881967 0
vn 0.1528585 -0.9882481 0
vn 4.109952E-08 1 0
vn -4.857152E-08 -1 0
vn 0.1531906 0.9881967 0
vn -0.1528585 -0.9882481 0
vn 0.3030625 0.9529707 0
vn -0.3024518 -0.9531646 0
vn 0.4462862 0.8948903 0
vn -0.4454929 -0.8952854 0
vn 0.5795258 0.8149539 0
vn -0.578671 -0.8155611 0
vn 0.6994788 0.7146533 0
vn -0.6986852 -0.7154292 0
vn 0.8029568 0.5960373 0
vn -0.8023229 -0.5968902 0
vn 0.8870072 0.4617558 0
vn -0.8865867 -0.4625625 0
vn 0.9490716 0.3150605 0
vn -0.9488622 -0.3156907 0
vn 0.9871588 0.1597417 0
vn -0.9871029 -0.1600874 0
vn 0.9871589 -0.1597415 0
vn -0.9871029 0.1600872 0
vn 0.9490717 -0.3150603 0
vn -0.9488623 0.3156905 0
vn 0.8870071 -0.4617558 0
vn -0.8865867 0.4625626 0
vn 0.8029568 -0.5960373 0
vn -0.802323 0.5968902 0
vn 0.6994789 -0.7146532 0
vn -0.6986852 0.7154292 0
vn 0.5795259 -0.8149538 0
vn -0.5786711 0.8155611 0
vn 0.4462865 -0.8948901 0
vn -0.4454933 0.8952852 0
vn 0.3030627 -0.9529706 0
vn -0.3024521 0.9531646 0
vn 0.1531909 -0.9881966 0
vn -0.1528588 0.9882481 0
vn -0.1531909 -0.9881966 0
vn 0.1528588 0.9882481 0
vn -0.3030625 -0.9529707 0
vn 0.3024522 0.9531645 0
vn -0.4462862 -0.8948902 0
vn 0.4454927 0.8952855 0
vn -0.5795257 -0.8149539 0
vn 0.5786707 0.8155613 0
vn -0.6994787 -0.7146534 0
vn 0.6986853 0.7154291 0
vn -0.8029565 -0.5960376 0
vn 0.8023227 0.5968905 0
vn -0.8870071 -0.4617558 0
vn 0.8865867 0.4625625 0
vn -0.9490717 -0.3150601 0
vn 0.9488623 0.3156903 0
vn -0.9871589 -0.1597415 0
vn 0.9871029 0.1600872 0
vn 0 0 1
vn 0 0 -1

usemtl ProBuilderDefault
f 3/3/1 4/4/2 2/2/2 1/1/1
f 7/7/3 8/8/4 6/6/4 5/5/3
f 4/11/2 10/12/5 9/10/5 2/9/2
f 12/15/6 7/16/3 5/14/3 11/13/6
f 10/19/5 14/20/7 13/18/7 9/17/5
f 16/23/8 12/24/6 11/22/6 15/21/8
f 14/27/7 18/28/9 17/26/9 13/25/7
f 20/31/10 16/32/8 15/30/8 19/29/10
f 18/35/9 22/36/11 21/34/11 17/33/9
f 24/39/12 20/40/10 19/38/10 23/37/12
f 22/43/11 26/44/13 25/42/13 21/41/11
f 28/47/14 24/48/12 23/46/12 27/45/14
f 26/51/13 30/52/15 29/50/15 25/49/13
f 32/55/16 28/56/14 27/54/14 31/53/16
f 30/59/15 34/60/17 33/58/17 29/57/15
f 36/63/18 32/64/16 31/62/16 35/61/18
f 34/67/17 38/68/19 37/66/19 33/65/17
f 40/71/20 36/72/18 35/70/18 39/69/20
f 38/75/19 42/76/21 41/74/21 37/73/19
f 44/79/22 40/80/20 39/78/20 43/77/22
f 42/83/21 46/84/23 45/82/23 41/81/21
f 48/87/24 44/88/22 43/86/22 47/85/24
f 46/91/23 50/92/25 49/90/25 45/89/23
f 52/95/26 48/96/24 47/94/24 51/93/26
f 50/99/25 54/100/27 53/98/27 49/97/25
f 56/103/28 52/104/26 51/102/26 55/101/28
f 54/107/27 58/108/29 57/106/29 53/105/27
f 60/111/30 56/112/28 55/110/28 59/109/30
f 58/115/29 62/116/31 61/114/31 57/113/29
f 64/119/32 60/120/30 59/118/30 63/117/32
f 62/123/31 66/124/33 65/122/33 61/121/31
f 68/127/34 64/128/32 63/126/32 67/125/34
f 66/131/33 70/132/35 69/130/35 65/129/33
f 72/135/36 68/136/34 67/134/34 71/133/36
f 70/139/35 74/140/37 73/138/37 69/137/35
f 76/143/38 72/144/36 71/142/36 75/141/38
f 74/147/37 78/148/39 77/146/39 73/145/37
f 80/151/40 76/152/38 75/150/38 79/149/40
f 78/155/39 82/156/4 81/154/4 77/153/39
f 84/159/1 80/160/40 79/158/40 83/157/1
f 82/163/4 86/164/41 85/162/41 81/161/4
f 88/167/42 84/168/1 83/166/1 87/165/42
f 86/171/41 90/172/43 89/170/43 85/169/41
f 92/175/44 88/176/42 87/174/42 91/173/44
f 90/179/43 94/180/45 93/178/45 89/177/43
f 96/183/46 92/184/44 91/182/44 95/181/46
f 94/187/45 98/188/47 97/186/47 93/185/45
f 100/191/48 96/192/46 95/190/46 99/189/48
f 98/195/47 102/196/49 101/194/49 97/193/47
f 104/199/50 100/200/48 99/198/48 103/197/50
f 102/43/49 106/44/51 105/42/51 101/41/49
f 108/202/52 104/48/50 103/46/50 107/201/52
f 106/51/51 110/52/53 109/50/53 105/49/51
f 112/55/54 108/56/52 107/54/52 111/53/54
f 110/59/53 114/60/55 113/58/55 109/57/53
f 116/63/56 112/64/54 111/62/54 115/61/56
f 114/67/55 118/68/57 117/66/57 113/65/55
f 120/71/58 116/72/56 115/70/56 119/69/58
f 118/75/57 122/76/22 121/74/22 117/73/57
f 124/79/21 120/80/58 119/78/58 123/77/21
f 122/83/22 126/84/59 125/82/59 121/81/22
f 128/87/60 124/88/21 123/86/21 127/85/60
f 126/91/59 130/92/61 129/90/61 125/89/59
f 132/95/62 128/96/60 127/94/60 131/93/62
f 130/99/61 134/100/63 133/98/63 129/97/61
f 136/103/64 132/104/62 131/102/62 135/101/64
f 134/107/63 138/108/65 137/106/65 133/105/63
f 140/111/66 136/112/64 135/110/64 139/109/66
f 138/115/65 142/116/67 141/114/67 137/113/65
f 144/119/68 140/120/66 139/118/66 143/117/68
f 142/205/67 146/206/69 145/204/69 141/203/67
f 148/209/70 144/210/68 143/208/68 147/207/70
f 146/213/69 150/214/71 149/212/71 145/211/69
f 152/217/72 148/218/70 147/216/70 151/215/72
f 150/221/71 154/222/73 153/220/73 149/219/71
f 156/225/74 152/226/72 151/224/72 155/223/74
f 154/229/73 158/230/75 157/228/75 153/227/73
f 160/233/76 156/234/74 155/232/74 159/231/76
f 158/237/75 3/238/1 1/236/1 157/235/75
f 8/241/4 160/242/76 159/240/76 6/239/4
f 8/245/77 7/246/77 4/244/77 3/243/77
f 5/249/78 6/250/78 1/248/78 2/247/78
f 7/246/77 12/252/77 10/251/77 4/244/77
f 11/254/78 5/249/78 2/247/78 9/253/78
f 12/252/77 16/256/77 14/255/77 10/251/77
f 15/258/78 11/254/78 9/253/78 13/257/78
f 16/256/77 20/260/77 18/259/77 14/255/77
f 19/262/78 15/258/78 13/257/78 17/261/78
f 20/260/77 24/264/77 22/263/77 18/259/77
f 23/266/78 19/262/78 17/261/78 21/265/78
f 24/264/77 28/268/77 26/267/77 22/263/77
f 27/270/78 23/266/78 21/265/78 25/269/78
f 28/268/77 32/272/77 30/271/77 26/267/77
f 31/274/78 27/270/78 25/269/78 29/273/78
f 32/272/77 36/276/77 34/275/77 30/271/77
f 35/278/78 31/274/78 29/273/78 33/277/78
f 36/276/77 40/280/77 38/279/77 34/275/77
f 39/282/78 35/278/78 33/277/78 37/281/78
f 40/280/77 44/284/77 42/283/77 38/279/77
f 43/284/78 39/282/78 37/281/78 41/283/78
f 44/284/77 48/282/77 46/281/77 42/283/77
f 47/280/78 43/284/78 41/283/78 45/279/78
f 48/282/77 52/278/77 50/277/77 46/281/77
f 51/276/78 47/280/78 45/279/78 49/275/78
f 52/278/77 56/274/77 54/273/77 50/277/77
f 55/272/78 51/276/78 49/275/78 53/271/78
f 56/274/77 60/270/77 58/269/77 54/273/77
f 59/268/78 55/272/78 53/271/78 57/267/78
f 60/270/77 64/266/77 62/265/77 58/269/77
f 63/264/78 59/268/78 57/267/78 61/263/78
f 64/266/77 68/262/77 66/261/77 62/265/77
f 67/260/78 63/264/78 61/263/78 65/259/78
f 68/262/77 72/258/77 70/257/77 66/261/77
f 71/256/78 67/260/78 65/259/78 69/255/78
f 72/258/77 76/254/77 74/253/77 70/257/77
f 75/252/78 71/256/78 69/255/78 73/251/78
f 76/254/77 80/249/77 78/247/77 74/253/77
f 79/246/78 75/252/78 73/251/78 77/244/78
f 80/249/77 84/250/77 82/248/77 78/247/77
f 83/245/78 79/246/78 77/244/78 81/243/78
f 84/250/77 88/286/77 86/285/77 82/248/77
f 87/288/78 83/245/78 81/243/78 85/287/78
f 88/286/77 92/290/77 90/289/77 86/285/77
f 91/292/78 87/288/78 85/287/78 89/291/78
f 92/290/77 96/294/77 94/293/77 90/289/77
f 95/296/78 91/292/78 89/291/78 93/295/78
f 96/294/77 100/298/77 98/297/77 94/293/77
f 99/300/78 95/296/78 93/295/78 97/299/78
f 100/298/77 104/302/77 102/301/77 98/297/77
f 103/304/78 99/300/78 97/299/78 101/303/78
f 104/302/77 108/306/77 106/305/77 102/301/77
f 107/308/78 103/304/78 101/303/78 105/307/78
f 108/306/77 112/310/77 110/309/77 106/305/77
f 111/312/78 107/308/78 105/307/78 109/311/78
f 112/310/77 116/314/77 114/313/77 110/309/77
f 115/316/78 111/312/78 109/311/78 113/315/78
f 116/314/77 120/318/77 118/317/77 114/313/77
f 119/320/78 115/316/78 113/315/78 117/319/78
f 120/318/77 124/322/77 122/321/77 118/317/77
f 123/322/78 119/320/78 117/319/78 121/321/78
f 124/322/77 128/320/77 126/319/77 122/321/77
f 127/318/78 123/322/78 121/321/78 125/317/78
f 128/320/77 132/316/77 130/315/77 126/319/77
f 131/314/78 127/318/78 125/317/78 129/313/78
f 132/316/77 136/312/77 134/311/77 130/315/77
f 135/310/78 131/314/78 129/313/78 133/309/78
f 136/312/77 140/308/77 138/307/77 134/311/77
f 139/306/78 135/310/78 133/309/78 137/305/78
f 140/308/77 144/304/77 142/303/77 138/307/77
f 143/302/78 139/306/78 137/305/78 141/301/78
f 144/304/77 148/300/77 146/299/77 142/303/77
f 147/298/78 143/302/78 141/301/78 145/297/78
f 148/300/77 152/296/77 150/295/77 146/299/77
f 151/294/78 147/298/78 145/297/78 149/293/78
f 152/296/77 156/292/77 154/291/77 150/295/77
f 155/290/78 151/294/78 149/293/78 153/289/78
f 156/292/77 160/288/77 158/287/77 154/291/77
f 159/286/78 155/290/78 153/289/78 157/285/78
f 160/288/77 8/245/77 3/243/77 158/287/77
f 6/250/78 159/286/78 157/285/78 1/248/78

